<svg width="0" height="0" class="hidden">
  <symbol id="facebook" viewBox="0 0 24 24" fill="" xmlns="http://www.w3.org/2000/svg">
    <path d="M13.3971 20.997V12.801H16.1621L16.5731 9.592H13.3971V7.548C13.3971 6.622 13.6551 5.988 14.9841 5.988H16.6681V3.127C15.8488 3.03919 15.0252 2.99679 14.2011 3C11.7571 3 10.0791 4.492 10.0791 7.231V9.586H7.33212V12.795H10.0851V20.997H13.3971Z" fill=""/>
  </symbol>
  <symbol viewBox="0 0 24 24" fill="" xmlns="http://www.w3.org/2000/svg" id="linkedin">
    <path d="M4.98292 7.19698C6.19132 7.19698 7.17092 6.21738 7.17092 5.00898C7.17092 3.80058 6.19132 2.82098 4.98292 2.82098C3.77452 2.82098 2.79492 3.80058 2.79492 5.00898C2.79492 6.21738 3.77452 7.19698 4.98292 7.19698Z" fill="">
    </path>
    <path d="M9.23722 8.85499V20.994H13.0062V14.991C13.0062 13.407 13.3042 11.873 15.2682 11.873C17.2052 11.873 17.2292 13.684 17.2292 15.091V20.995H21.0002V14.338C21.0002 11.068 20.2962 8.55499 16.4742 8.55499C14.6392 8.55499 13.4092 9.56199 12.9062 10.515H12.8552V8.85499H9.23722V8.85499ZM3.09521 8.85499H6.87021V20.994H3.09521V8.85499Z" fill="">
    </path>
  </symbol>
  <symbol viewBox="0 0 20 20" fill="" xmlns="http://www.w3.org/2000/svg" id="mail">
  <path d="M1.574 5.286L9.074 9.315C9.326 9.45 9.652 9.514 9.98 9.514C10.308 9.514 10.634 9.45 10.886 9.315L18.386 5.286C18.875 5.023 19.337 4 18.44 4H1.521C0.624002 4 1.086 5.023 1.574 5.286V5.286ZM18.613 7.489L10.886 11.516C10.546 11.694 10.308 11.715 9.98 11.715C9.652 11.715 9.414 11.694 9.074 11.516C8.734 11.338 1.941 7.777 1.386 7.488C0.996002 7.284 1 7.523 1 7.707V15C1 15.42 1.566 16 2 16H18C18.434 16 19 15.42 19 15V7.708C19 7.524 19.004 7.285 18.613 7.489V7.489Z" fill=""/>
  </symbol>
  <symbol viewBox="0 0 20 20" fill="" xmlns="http://www.w3.org/2000/svg" id="medium">
   <path d="M21.957 6.73002C21.9666 6.71442 21.9699 6.69579 21.9664 6.67782C21.9629 6.65985 21.9528 6.64387 21.938 6.63302C21.934 6.62902 21.93 6.62502 21.926 6.62302L21.92 6.62102L15.887 3.60302C15.7954 3.56072 15.6959 3.5379 15.595 3.53602C15.4785 3.53528 15.3638 3.56395 15.2613 3.61936C15.1589 3.67477 15.0721 3.75514 15.009 3.85302L11.535 9.49902L15.894 16.582L21.957 6.73002ZM20.893 20.273C21.504 20.579 22 20.365 22 19.795V8.48302L16.191 17.922L20.893 20.273ZM9.622 8.21303V14.639L15.333 17.494L9.622 8.21303ZM2.554 17.771L7.744 20.366C7.85942 20.4272 7.98743 20.4607 8.118 20.464C8.441 20.464 8.667 20.214 8.667 19.795V6.70103C8.66702 6.68895 8.66379 6.67709 8.65762 6.66671C8.65146 6.65632 8.64261 6.64779 8.632 6.64202L2.739 3.69702C2.64657 3.64755 2.54381 3.62049 2.439 3.61802C2.181 3.61802 2 3.81702 2 4.15202V16.875C2 17.216 2.25 17.619 2.554 17.771Z" fill=""></path>
  </symbol>
  <symbol viewBox="0 0 24 24" fill="" xmlns="http://www.w3.org/2000/svg" id="twitter">
  <path d="M19.633 7.99698C19.646 8.17198 19.646 8.34598 19.646 8.51998C19.646 13.845 15.593 19.981 8.186 19.981C5.904 19.981 3.784 19.32 2 18.172C2.324 18.209 2.636 18.222 2.973 18.222C4.78599 18.2264 6.54765 17.6201 7.974 16.501C7.13342 16.4858 6.31858 16.2084 5.64324 15.7077C4.9679 15.207 4.46578 14.5079 4.207 13.708C4.456 13.745 4.706 13.77 4.968 13.77C5.329 13.77 5.692 13.72 6.029 13.633C5.11676 13.4488 4.29647 12.9543 3.70762 12.2337C3.11876 11.513 2.79769 10.6106 2.799 9.67998V9.62998C3.336 9.92898 3.959 10.116 4.619 10.141C4.06609 9.77357 3.61272 9.27501 3.29934 8.68977C2.98596 8.10454 2.82231 7.45084 2.823 6.78698C2.823 6.03898 3.022 5.35298 3.371 4.75498C4.38314 6 5.6455 7.01854 7.07634 7.74464C8.50717 8.47074 10.0746 8.8882 11.677 8.96998C11.615 8.66998 11.577 8.35898 11.577 8.04698C11.5767 7.51794 11.6807 6.99404 11.8831 6.50522C12.0854 6.0164 12.3821 5.57226 12.7562 5.19817C13.1303 4.82408 13.5744 4.52739 14.0632 4.32506C14.5521 4.12273 15.076 4.01872 15.605 4.01898C16.765 4.01898 17.812 4.50498 18.548 5.29098C19.4498 5.1166 20.3145 4.7874 21.104 4.31798C20.8034 5.2488 20.1738 6.03809 19.333 6.53798C20.1328 6.44676 20.9144 6.23643 21.652 5.91398C21.1011 6.71708 20.4185 7.42133 19.633 7.99698V7.99698Z" fill=""/>
  </symbol>
</svg>